<?xml version="1.0" encoding="UTF-8"?>
<svg width="30px" height="30px" viewBox="0 0 30 30" version="1.1" xmlns="http://www.w3.org/2000/svg" xmlns:xlink="http://www.w3.org/1999/xlink">
    <!-- Generator: sketchtool 50.2 (55047) - http://www.bohemiancoding.com/sketch -->
    <title>D8925DFC-3E9A-4A22-AFC9-190559946F17</title>
    <desc>Created with sketchtool.</desc>
    <defs></defs>
    <g id="Page-1" stroke="none" stroke-width="1" fill="none" fill-rule="evenodd">
        <g id="Your-Details-2" transform="translate(-757.000000, -340.000000)">
            <g id="Modal" transform="translate(321.000000, 200.000000)">
                <g id="Form" transform="translate(106.000000, 114.000000)">
                    <g id="Text-Field">
                        <g id="Icon-/-Validation-/-Field-Error" transform="translate(330.000000, 26.000000)">
                            <g>
                                <circle id="Oval" fill="#FFFFFF" cx="15" cy="15" r="14"></circle>
                                <path d="M15,1 C7.2680135,1 1,7.2680135 1,15 C1,22.7319865 7.2680135,29 15,29 C22.7319865,29 29,22.7319865 29,15 C29,7.2680135 22.7319865,1 15,1 Z M15,0 C23.2842712,-1.52179594e-15 30,6.71572875 30,15 C30,23.2842712 23.2842712,30 15,30 C6.71572875,30 1.01453063e-15,23.2842712 0,15 C-1.01453063e-15,6.71572875 6.71572875,1.52179594e-15 15,0 Z" id="Rectangle-4" fill="#FFB6B6" fill-rule="nonzero"></path>
                                <path d="M14,9 L16,9 L16,18 L14,18 L14,9 Z M14,19 L16,19 L16,21 L14,21 L14,19 Z" id="Combined-Shape" fill="#CC3D3D"></path>
                            </g>
                        </g>
                    </g>
                </g>
            </g>
        </g>
    </g>
</svg>