<?xml version="1.0" encoding="UTF-8"?>
<svg width="30px" height="30px" viewBox="0 0 30 30" version="1.1" xmlns="http://www.w3.org/2000/svg" xmlns:xlink="http://www.w3.org/1999/xlink">
    <!-- Generator: sketchtool 50.2 (55047) - http://www.bohemiancoding.com/sketch -->
    <title>897DE05E-0B1A-4F6F-9495-A27370B45C0B</title>
    <desc>Created with sketchtool.</desc>
    <defs></defs>
    <g id="Page-1" stroke="none" stroke-width="1" fill="none" fill-rule="evenodd">
        <g id="Your-Details-2" transform="translate(-757.000000, -447.000000)">
            <g id="Modal" transform="translate(321.000000, 200.000000)">
                <g id="Form" transform="translate(106.000000, 114.000000)">
                    <g id="Text-Field" transform="translate(0.000000, 108.000000)">
                        <g id="Icon-/-Validation-/-Field-Success" transform="translate(330.000000, 25.000000)">
                            <g id="Validation-Icon-/-Success">
                                <path d="M15,1 C7.2680135,1 1,7.2680135 1,15 C1,22.7319865 7.2680135,29 15,29 C22.7319865,29 29,22.7319865 29,15 C29,7.2680135 22.7319865,1 15,1 Z M15,0 C23.2842712,-1.52179594e-15 30,6.71572875 30,15 C30,23.2842712 23.2842712,30 15,30 C6.71572875,30 1.01453063e-15,23.2842712 0,15 C-1.01453063e-15,6.71572875 6.71572875,1.52179594e-15 15,0 Z" id="Rectangle-4" fill="#D5D8DF" fill-rule="nonzero"></path>
                                <path d="M11.0355339,15.7426407 L21.0355339,15.7426407 L21.0355339,17.7426407 L11.0355339,17.7426407 L9.03553391,17.7426407 L9.03553391,10.7426407 L11.0355339,10.7426407 L11.0355339,15.7426407 Z" id="Combined-Shape" fill-opacity="0.99" fill="#3BAD7A" transform="translate(15.035534, 14.242641) rotate(-45.000000) translate(-15.035534, -14.242641) "></path>
                            </g>
                        </g>
                    </g>
                </g>
            </g>
        </g>
    </g>
</svg>